<svg width="299" height="299" viewBox="0 0 299 299" fill="none" xmlns="http://www.w3.org/2000/svg">
<path d="M117.184 176.811H77.4768L75.0669 149.004H114.774L117.184 176.811Z" fill="#FEFFE8"/>
<path d="M119.241 176.811H79.534L77.124 149.004H116.831L119.241 176.811Z" fill="#FEFFE8"/>
<path d="M84.9638 170.837L83.6362 154.972H111.401L112.729 170.837H84.9638Z" fill="#FEFFE8"/>
<path d="M126.112 176.811H121.454V228.675H126.112V176.811Z" fill="#FEFFE8"/>
<path d="M127.583 176.811H124.348V228.675H127.583V176.811Z" fill="#FEFFE8"/>
<path d="M82.4881 182.534H127.583V176.811H82.4881V182.534Z" fill="#FEFFE8"/>
<path d="M84.0788 182.534H79.4203V228.675H84.0788V182.534Z" fill="#FEFFE8"/>
<path d="M85.5499 182.534H82.3147V228.675H85.5499V182.534Z" fill="#FEFFE8"/>
<path d="M50.9197 182.534H46.2612V228.675H50.9197V182.534Z" fill="#FEFFE8"/>
<path d="M52.3908 182.534H49.1556V228.675H52.3908V182.534Z" fill="#FEFFE8"/>
<path d="M96.6308 182.534H91.9724V228.675H96.6308V182.534Z" fill="#FEFFE8"/>
<path d="M98.0959 182.534H94.8607V228.675H98.0959V182.534Z" fill="#FEFFE8"/>
<path d="M82.4881 176.811H46.2612V182.534H82.4881V176.811Z" fill="#FEFFE8"/>
<path d="M217.576 47.4872H77.447V125.502H217.576V47.4872Z" fill="#FEFFE8"/>
<path d="M225.273 47.4872H78.1526V125.502H225.273V47.4872Z" fill="#FEFFE8"/>
<path d="M222.869 123.098V49.8911L80.5565 49.8911V123.098L222.869 123.098Z" fill="#FEFFE8"/>
<path d="M138.18 123.098L165.048 49.8911H120.706L93.8381 123.098H138.18Z" fill="#FEFFE8"/>
<path d="M180.859 123.098L207.727 49.8911H174.275L147.407 123.098H180.859Z" fill="#FEFFE8"/>
<path d="M261.99 154.164H250.078V228.675H261.99V154.164Z" fill="#FEFFE8"/>
<path d="M258.856 228.675H261.99V222.94H255.573L258.856 228.675Z" fill="#FEFFE8"/>
<path d="M152.161 154.164H140.249V228.675H152.161V154.164Z" fill="#FEFFE8"/>
<path d="M261.99 154.164H149.428V227.126H261.99V154.164Z" fill="#FEFFE8"/>
<path d="M259.861 177.708H151.563V157.101H259.861V177.708ZM152.161 177.11H259.263V157.699H152.161V177.11Z" fill="#FEFFE8"/>
<path d="M240.797 167.105H172.726C169.569 167.105 166.525 164.558 164.354 160.109L164.151 159.684H249.366L249.163 160.109C246.974 164.558 243.984 167.105 240.797 167.105ZM165.132 160.264C167.153 164.229 169.916 166.489 172.726 166.489H240.797C243.619 166.489 246.37 164.229 248.391 160.264H165.132Z" fill="#FEFFE8"/>
<path d="M152.562 228.675H149.428V222.94H155.845L152.562 228.675Z" fill="#FEFFE8"/>
<path d="M259.861 200.928H151.563V180.345H259.861V200.928ZM152.161 200.33H259.263V180.943H152.161V200.33Z" fill="#FEFFE8"/>
<path d="M240.797 190.349H172.726C169.569 190.349 166.525 187.796 164.354 183.353L164.151 182.922H249.366L249.163 183.353C246.974 187.772 243.984 190.349 240.797 190.349ZM165.132 183.52C167.153 187.485 169.916 189.751 172.726 189.751H240.797C243.619 189.751 246.37 187.485 248.391 183.52H165.132Z" fill="#FEFFE8"/>
<path d="M259.861 224.19H151.563V203.583H259.861V224.19ZM152.161 223.592H259.263V204.181H152.161V223.592Z" fill="#FEFFE8"/>
<path d="M240.797 213.588H172.726C169.569 213.588 166.525 211.04 164.354 206.597L164.151 206.167H249.366L249.163 206.597C246.974 211.04 243.984 213.588 240.797 213.588ZM165.132 206.765C167.153 210.729 169.916 212.99 172.726 212.99H240.797C243.619 212.99 246.37 210.729 248.391 206.765H165.132Z" fill="#FEFFE8"/>
<path d="M72.346 164.019V165.467H71.4251L70.6597 176.811H59.3933L58.6339 165.467H57.707V164.019H72.346Z" fill="#FEFFE8"/>
<path d="M68.6384 135.872C67.7175 129.114 58.598 127.189 47.0267 126.937C36.0175 126.704 32.4893 122.811 32.4893 122.811C32.4893 122.811 32.5252 138.581 48.3901 144.297C63.4538 149.715 69.5653 142.641 68.6384 135.872Z" fill="#FEFFE8"/>
<path d="M63.0172 151.186C63.2086 148.412 67.6457 143.305 78.32 145.625C86.0342 147.305 88.9046 143.305 88.9046 143.305C88.9046 143.305 88.187 154.595 76.5858 157.986C65.5647 161.209 62.6763 156.078 63.0172 151.186Z" fill="#FEFFE8"/>
<path d="M65.4511 168.277C65.5112 168.278 65.5707 168.265 65.6254 168.24C65.6802 168.216 65.7289 168.179 65.7681 168.134C66.5395 167.219 65.9056 165.03 65.0325 161.998C63.9083 158.111 62.509 153.267 63.693 149.757C64.3493 147.903 65.1161 146.09 65.9893 144.327C67.6637 140.787 69.1109 137.749 67.9029 134.532C67.8841 134.481 67.8553 134.434 67.8182 134.394C67.7811 134.354 67.7364 134.322 67.6868 134.299C67.6371 134.276 67.5835 134.264 67.529 134.262C67.4745 134.26 67.4202 134.269 67.3692 134.289C67.3182 134.308 67.2716 134.337 67.232 134.375C67.1924 134.413 67.1606 134.457 67.1385 134.507C67.1164 134.557 67.1044 134.611 67.1032 134.666C67.102 134.72 67.1116 134.774 67.1315 134.825C68.2139 137.689 66.9043 140.464 65.2418 143.98C64.3575 145.771 63.5788 147.612 62.9096 149.494C61.6478 153.249 63.083 158.231 64.2372 162.225C64.9189 164.617 65.6245 167.009 65.1402 167.607C65.1017 167.649 65.0723 167.698 65.0537 167.751C65.0352 167.804 65.0279 167.861 65.0324 167.917C65.0369 167.973 65.0531 168.028 65.0799 168.078C65.1066 168.127 65.1435 168.171 65.188 168.205C65.2644 168.26 65.3577 168.285 65.4511 168.277Z" fill="#FEFFE8"/>
<path d="M149.5 255.681C213.535 255.681 265.446 252.65 265.446 248.911C265.446 245.173 213.535 242.142 149.5 242.142C85.4647 242.142 33.5538 245.173 33.5538 248.911C33.5538 252.65 85.4647 255.681 149.5 255.681Z" fill="#F5F5F5"/>
<path d="M149.476 215.908H64.5601L59.9136 79.3426H144.83L149.476 215.908Z" fill="#F4931E"/>
<path d="M153.716 211.668H68.7999L64.1475 75.1028H149.063L153.716 211.668Z" fill="#F4931E"/>
<path opacity="0.3" d="M153.716 211.668H68.7999L64.1475 75.1028H149.063L153.716 211.668Z" fill="white"/>
<path d="M125.265 131.299C134.357 122.05 133.97 106.927 124.401 97.5197C114.831 88.1127 99.7034 87.9846 90.6113 97.2335C81.5192 106.482 81.906 121.606 91.4752 131.013C101.045 140.42 116.173 140.548 125.265 131.299Z" fill="#F4931E"/>
<path d="M127.655 114.272C127.777 117.526 127.067 120.757 125.592 123.66C124 126.789 121.567 129.412 118.567 131.235C115.568 133.058 112.119 134.009 108.609 133.982C105.016 133.963 101.492 132.999 98.3889 131.187C95.2863 129.375 92.7146 126.78 90.9319 123.66C89.2697 120.802 88.341 117.577 88.2289 114.272C88.1186 111.709 88.5304 109.151 89.4393 106.753C90.3482 104.355 91.7352 102.166 93.516 100.321C95.2968 98.4748 97.4343 97.0104 99.7986 96.0163C102.163 95.0223 104.705 94.5192 107.269 94.5378C112.553 94.5752 117.619 96.6465 121.415 100.321C125.211 103.996 127.446 108.992 127.655 114.272Z" fill="white"/>
<path opacity="0.6" d="M125.58 123.66C123.988 126.789 121.555 129.412 118.555 131.235C115.556 133.058 112.107 134.009 108.597 133.982C105.004 133.962 101.48 132.999 98.3769 131.187C95.2743 129.375 92.7026 126.78 90.9199 123.66C95.9773 120.212 101.962 118.38 108.083 118.404C114.302 118.417 120.383 120.244 125.58 123.66Z" fill="#F4931E"/>
<path opacity="0.6" d="M114.082 113.78C117.425 110.379 117.283 104.818 113.764 101.359C110.245 97.9 104.683 97.8529 101.339 101.254C97.996 104.655 98.1382 110.216 101.657 113.675C105.176 117.134 110.738 117.181 114.082 113.78Z" fill="#F4931E"/>
<path d="M136.655 162.213H82.4881L82.1234 151.449H136.29L136.655 162.213Z" fill="white"/>
<path d="M137.313 181.451H83.1399L82.7751 170.687H136.948L137.313 181.451Z" fill="white"/>
<path d="M116.407 172.17L103.352 173.964C103.228 173.978 103.108 174.018 102.999 174.081C102.891 174.144 102.796 174.229 102.722 174.33C102.648 174.431 102.596 174.546 102.568 174.669C102.541 174.791 102.539 174.918 102.563 175.041L104.279 183.789C104.335 184.046 104.486 184.273 104.7 184.424C104.915 184.576 105.179 184.642 105.439 184.609L118.494 182.815C118.618 182.799 118.738 182.758 118.845 182.694C118.953 182.63 119.047 182.545 119.12 182.443C119.194 182.342 119.245 182.226 119.272 182.104C119.299 181.982 119.301 181.855 119.277 181.732L117.567 172.983C117.511 172.727 117.36 172.501 117.145 172.351C116.93 172.2 116.667 172.136 116.407 172.17ZM112.657 181.033L110.265 181.35L110.032 178.527C109.786 178.42 109.568 178.256 109.399 178.048C109.229 177.84 109.112 177.594 109.057 177.331C109.013 177.127 109.013 176.917 109.055 176.713C109.098 176.509 109.183 176.316 109.304 176.147C109.426 175.978 109.582 175.836 109.762 175.731C109.942 175.626 110.142 175.56 110.349 175.537C110.774 175.482 111.203 175.589 111.553 175.836C111.903 176.083 112.148 176.452 112.239 176.87C112.29 177.123 112.275 177.385 112.193 177.63C112.111 177.875 111.966 178.093 111.772 178.264L112.657 181.033Z" fill="#F4931E"/>
<path d="M115.115 171.698C114.884 171.727 114.651 171.669 114.46 171.535C114.27 171.401 114.137 171.201 114.086 170.974L113.919 170.119C113.68 168.952 113.026 167.911 112.078 167.19C111.13 166.469 109.953 166.115 108.764 166.196C108.165 166.23 107.579 166.393 107.048 166.674C106.517 166.954 106.052 167.346 105.686 167.822C105.319 168.298 105.059 168.847 104.924 169.432C104.789 170.017 104.781 170.625 104.901 171.213L105.093 172.2C105.115 172.309 105.114 172.422 105.09 172.531C105.066 172.64 105.02 172.743 104.954 172.833C104.888 172.923 104.804 172.998 104.708 173.054C104.611 173.11 104.504 173.145 104.393 173.157C104.162 173.189 103.927 173.132 103.736 172.998C103.545 172.864 103.412 172.662 103.364 172.433L103.203 171.602C103.039 170.825 103.033 170.023 103.187 169.244C103.34 168.465 103.65 167.725 104.097 167.069C104.544 166.413 105.119 165.853 105.787 165.425C106.456 164.996 107.204 164.708 107.987 164.576C109.685 164.29 111.427 164.67 112.852 165.635C114.277 166.601 115.276 168.078 115.641 169.76L115.833 170.741C115.855 170.852 115.854 170.966 115.829 171.076C115.804 171.186 115.756 171.29 115.688 171.38C115.62 171.47 115.534 171.545 115.436 171.6C115.337 171.655 115.228 171.688 115.115 171.698Z" fill="#F4931E"/>
<path d="M128.373 196.527H93.1086L92.8754 189.518H128.133L128.373 196.527Z" fill="#F4931E"/>
<path d="M111.36 156.831C111.37 157.087 111.329 157.342 111.238 157.581C111.147 157.82 111.008 158.039 110.83 158.223C110.652 158.407 110.439 158.552 110.203 158.652C109.967 158.751 109.714 158.801 109.458 158.799C108.931 158.795 108.425 158.588 108.046 158.222C107.666 157.856 107.442 157.358 107.419 156.831C107.408 156.576 107.45 156.321 107.541 156.082C107.632 155.843 107.77 155.624 107.948 155.44C108.126 155.256 108.339 155.11 108.575 155.011C108.811 154.912 109.065 154.862 109.32 154.864C109.848 154.867 110.355 155.073 110.734 155.439C111.114 155.805 111.338 156.304 111.36 156.831Z" fill="#263238"/>
<path d="M102.856 156.831C102.867 157.087 102.827 157.343 102.736 157.582C102.645 157.822 102.507 158.04 102.329 158.224C102.151 158.409 101.937 158.554 101.701 158.653C101.464 158.752 101.21 158.802 100.954 158.799C100.428 158.795 99.9228 158.588 99.5443 158.222C99.1657 157.856 98.9426 157.358 98.9212 156.831C98.9106 156.576 98.9521 156.321 99.0431 156.082C99.1341 155.843 99.2727 155.624 99.4505 155.44C99.6283 155.256 99.8416 155.11 100.078 155.011C100.313 154.912 100.567 154.862 100.823 154.864C101.35 154.867 101.856 155.073 102.234 155.439C102.613 155.806 102.836 156.305 102.856 156.831Z" fill="#263238"/>
<path d="M94.4063 156.831C94.4168 157.087 94.3753 157.342 94.2843 157.581C94.1934 157.82 94.0548 158.039 93.8769 158.223C93.6991 158.407 93.4858 158.552 93.2499 158.652C93.014 158.751 92.7605 158.801 92.5047 158.799C91.9775 158.796 91.4718 158.59 91.093 158.223C90.7141 157.857 90.4915 157.358 90.4715 156.831C90.4609 156.576 90.5024 156.321 90.5934 156.082C90.6844 155.843 90.823 155.624 91.0008 155.44C91.1786 155.256 91.3919 155.11 91.6278 155.011C91.8637 154.912 92.1173 154.862 92.3731 154.864C92.9002 154.867 93.406 155.073 93.7848 155.439C94.1636 155.806 94.3863 156.305 94.4063 156.831Z" fill="#263238"/>
<path d="M119.833 156.831C119.844 157.087 119.802 157.342 119.711 157.581C119.62 157.82 119.482 158.039 119.304 158.223C119.126 158.407 118.913 158.552 118.677 158.652C118.441 158.751 118.187 158.801 117.932 158.799C117.404 158.796 116.899 158.59 116.52 158.223C116.141 157.857 115.918 157.358 115.898 156.831C115.889 156.577 115.932 156.323 116.025 156.085C116.117 155.847 116.256 155.63 116.435 155.448C116.613 155.266 116.826 155.122 117.062 155.024C117.298 154.927 117.551 154.879 117.806 154.882C118.329 154.886 118.831 155.09 119.208 155.453C119.585 155.816 119.809 156.309 119.833 156.831Z" fill="#263238"/>
<path d="M128.307 156.831C128.318 157.087 128.277 157.343 128.187 157.582C128.096 157.822 127.957 158.04 127.779 158.224C127.601 158.409 127.388 158.554 127.152 158.653C126.915 158.752 126.661 158.802 126.405 158.799C125.879 158.795 125.374 158.588 124.995 158.222C124.617 157.856 124.394 157.358 124.372 156.831C124.361 156.576 124.403 156.321 124.494 156.082C124.585 155.843 124.724 155.624 124.901 155.44C125.079 155.256 125.292 155.11 125.528 155.011C125.764 154.912 126.018 154.862 126.274 154.864C126.801 154.867 127.307 155.073 127.685 155.439C128.064 155.806 128.287 156.305 128.307 156.831Z" fill="#263238"/>
<path d="M199.678 104.219C200.473 105.499 201.137 106.719 201.819 107.993C202.501 109.267 203.117 110.546 203.721 111.856C204.953 114.508 205.973 117.253 206.77 120.066C206.878 120.419 206.956 120.796 207.045 121.161L207.177 121.717L207.243 121.992L207.321 122.446C207.455 123.477 207.393 124.525 207.135 125.532C206.722 127.096 206.094 128.596 205.269 129.987C203.794 132.516 202.01 134.852 199.959 136.942L197.442 135.04C198.705 132.717 199.83 130.321 200.808 127.864C201.244 126.782 201.551 125.652 201.723 124.498C201.778 124.145 201.762 123.785 201.675 123.439L201.436 122.71C201.341 122.411 201.251 122.112 201.137 121.807C200.228 119.34 199.175 116.928 197.986 114.583C196.79 112.191 195.504 109.799 194.218 107.514L199.678 104.219Z" fill="#FF8B7B"/>
<path d="M198.081 134.209L195.331 135.662L198.488 139.358C198.488 139.358 200.462 138.024 200.551 135.991L198.081 134.209Z" fill="#FF8B7B"/>
<path d="M191.641 137.941L195.02 140.626L198.488 139.358L195.331 135.662L191.641 137.941Z" fill="#FF8B7B"/>
<path d="M180.088 84.6529C180.022 84.9878 179.789 85.221 179.573 85.1791C179.358 85.1373 179.232 84.8263 179.298 84.4974C179.364 84.1685 179.597 83.8994 179.819 83.9712C180.04 84.0429 180.153 84.318 180.088 84.6529Z" fill="#263238"/>
<path d="M179.819 85.227C179.216 86.1636 178.488 87.0128 177.654 87.7505C177.851 87.9547 178.09 88.1138 178.354 88.217C178.618 88.3203 178.902 88.3651 179.185 88.3485L179.819 85.227Z" fill="#FF5652"/>
<path d="M178.742 96.9597V93.0368L183.933 93.6348C183.933 93.6348 183.849 97.0076 180.943 98.0002L178.742 96.9597Z" fill="#FF8B7B"/>
<path d="M180.237 90.2143L183.891 91.2668L183.957 93.6648L178.766 93.0369L180.237 90.2143Z" fill="#FF8B7B"/>
<path opacity="0.2" d="M183.891 91.2668L180.237 90.2143L179.526 91.5777C179.564 92.6521 179.9 93.6946 180.495 94.5898C181.091 95.4849 181.923 96.1976 182.898 96.6488C183.526 95.7719 183.893 94.7353 183.957 93.6588L183.891 91.2668Z" fill="black"/>
<path d="M181.678 83.0562C181.717 83.0552 181.754 83.0433 181.786 83.022C181.818 83.0007 181.843 82.9709 181.859 82.9359C181.874 82.9008 181.88 82.8621 181.874 82.8242C181.869 82.7862 181.853 82.7506 181.828 82.7213C181.618 82.4841 181.354 82.3006 181.059 82.1862C180.763 82.0718 180.445 82.0297 180.13 82.0635C180.078 82.0723 180.032 82.1012 180.002 82.1438C179.972 82.1864 179.959 82.2392 179.968 82.2908C179.977 82.3427 180.006 82.3891 180.048 82.4204C180.09 82.4516 180.143 82.4652 180.195 82.4582C180.445 82.4337 180.697 82.4693 180.93 82.5618C181.163 82.6544 181.37 82.8014 181.535 82.9904C181.553 83.0104 181.575 83.0265 181.6 83.0378C181.625 83.0491 181.651 83.0554 181.678 83.0562Z" fill="#263238"/>
<path d="M189.321 90.7047C188.723 93.7844 188.352 98.0481 190.517 100.099C190.517 100.099 189.68 103.221 183.939 103.221C177.654 103.221 180.919 100.482 180.919 100.482C183.532 99.6687 183.508 96.6966 182.91 94.3046L189.321 90.7047Z" fill="#FF8B7B"/>
<path d="M191.683 102.156C192.245 101.367 192.221 98.8614 191.623 98.4188C190.66 97.7072 186.528 97.5398 180.973 98.8195C181.571 101.247 180.285 102.515 180.285 102.515L191.683 102.156Z" fill="#F4931E"/>
<path d="M210.376 244.128C210.206 244.188 210.025 244.213 209.844 244.203C209.663 244.193 209.487 244.147 209.324 244.068C209.262 244.01 209.22 243.935 209.203 243.853C209.186 243.77 209.194 243.684 209.228 243.607C209.247 243.543 209.28 243.483 209.324 243.432C209.369 243.382 209.424 243.341 209.485 243.314C210.053 243.039 211.357 243.571 211.417 243.595C211.435 243.603 211.45 243.615 211.461 243.631C211.471 243.647 211.477 243.666 211.477 243.685C211.477 243.704 211.471 243.723 211.462 243.74C211.453 243.757 211.439 243.771 211.423 243.781C211.086 243.929 210.735 244.045 210.376 244.128ZM209.689 243.452C209.649 243.461 209.611 243.475 209.575 243.494C209.538 243.507 209.504 243.53 209.477 243.559C209.45 243.588 209.43 243.623 209.42 243.661C209.366 243.84 209.42 243.9 209.455 243.918C209.683 244.11 210.52 243.918 211.112 243.697C210.662 243.511 210.175 243.427 209.689 243.452Z" fill="#F4931E"/>
<path d="M211.399 243.787H211.351C210.873 243.649 209.856 242.926 209.844 242.453C209.844 242.378 209.869 242.305 209.916 242.246C209.963 242.188 210.028 242.147 210.101 242.13C210.172 242.104 210.248 242.093 210.324 242.099C210.399 242.106 210.472 242.128 210.538 242.166C211.1 242.453 211.459 243.613 211.471 243.667C211.479 243.682 211.484 243.698 211.484 243.715C211.484 243.732 211.479 243.748 211.471 243.763C211.461 243.772 211.45 243.779 211.438 243.783C211.425 243.787 211.412 243.789 211.399 243.787ZM210.203 242.298H210.155C210.036 242.339 210.036 242.399 210.036 242.429C210.036 242.71 210.717 243.278 211.232 243.506C211.106 243.171 210.831 242.507 210.466 242.31C210.385 242.273 210.293 242.268 210.209 242.298H210.203Z" fill="#F4931E"/>
<path d="M179.316 244.833C178.778 244.833 178.258 244.755 178.084 244.516C178.039 244.452 178.015 244.376 178.015 244.298C178.015 244.22 178.039 244.143 178.084 244.08C178.119 244.021 178.164 243.97 178.219 243.93C178.273 243.89 178.335 243.862 178.401 243.846C179.101 243.655 180.572 244.492 180.632 244.528C180.65 244.537 180.665 244.552 180.674 244.571C180.682 244.589 180.684 244.61 180.68 244.63C180.677 244.65 180.669 244.669 180.655 244.685C180.641 244.7 180.622 244.71 180.602 244.714C180.178 244.791 179.748 244.831 179.316 244.833ZM178.652 244.014C178.589 244.004 178.524 244.004 178.461 244.014C178.421 244.022 178.382 244.039 178.348 244.062C178.314 244.086 178.286 244.116 178.264 244.151C178.192 244.277 178.222 244.337 178.264 244.373C178.461 244.648 179.52 244.654 180.303 244.54C179.792 244.261 179.231 244.082 178.652 244.014Z" fill="#F4931E"/>
<path d="M180.596 244.714H180.554C180.046 244.486 179.041 243.577 179.119 243.099C179.119 242.985 179.215 242.848 179.49 242.824C179.588 242.812 179.688 242.821 179.782 242.85C179.877 242.879 179.965 242.927 180.04 242.991C180.423 243.449 180.653 244.016 180.698 244.612C180.697 244.629 180.694 244.646 180.686 244.661C180.679 244.677 180.669 244.69 180.656 244.702C180.637 244.711 180.617 244.715 180.596 244.714ZM179.567 243.009H179.508C179.328 243.009 179.316 243.093 179.316 243.117C179.268 243.404 179.95 244.122 180.47 244.432C180.425 243.953 180.23 243.499 179.914 243.135C179.816 243.051 179.69 243.006 179.561 243.009H179.567Z" fill="#F4931E"/>
<path d="M185.213 244.618H181.009L180.59 234.876H184.794L185.213 244.618Z" fill="#FF8B7B"/>
<path d="M216.087 242.668L211.979 243.559L207.847 234.488L211.961 233.597L216.087 242.668Z" fill="#FF8B7B"/>
<path d="M211.578 243.147L216.201 242.148C216.282 242.131 216.366 242.142 216.44 242.179C216.514 242.216 216.573 242.277 216.607 242.351L218.21 245.832C218.253 245.916 218.275 246.009 218.275 246.104C218.274 246.198 218.252 246.291 218.208 246.375C218.165 246.459 218.103 246.532 218.026 246.587C217.95 246.642 217.861 246.679 217.768 246.693C216.153 247.01 215.346 247.088 213.318 247.524C212.069 247.799 209.246 248.487 207.518 248.858C205.79 249.228 205.198 247.572 205.873 247.267C208.893 245.886 210.149 244.672 210.968 243.541C211.117 243.34 211.334 243.199 211.578 243.147Z" fill="#263238"/>
<path d="M181.038 244.128H185.631C185.714 244.128 185.795 244.157 185.86 244.209C185.925 244.261 185.971 244.333 185.99 244.415L186.821 248.152C186.846 248.242 186.848 248.337 186.829 248.429C186.811 248.52 186.77 248.606 186.712 248.68C186.654 248.753 186.579 248.812 186.495 248.851C186.41 248.89 186.317 248.909 186.223 248.906C184.567 248.876 182.175 248.78 180.094 248.78C177.654 248.78 175.555 248.912 172.696 248.912C170.968 248.912 170.49 247.165 171.213 247.004C174.502 246.286 177.193 246.209 180.034 244.456C180.332 244.257 180.68 244.143 181.038 244.128Z" fill="#263238"/>
<path d="M198.04 101.062C201.98 101.965 205.216 112.029 205.216 112.029L197.34 118.051C195.296 115.866 193.853 113.187 193.154 110.277C191.761 105.003 194.009 100.129 198.04 101.062Z" fill="#F4931E"/>
<path opacity="0.4" d="M198.04 101.062C201.98 101.965 205.216 112.029 205.216 112.029L197.34 118.051C195.296 115.866 193.853 113.187 193.154 110.277C191.761 105.003 194.009 100.129 198.04 101.062Z" fill="black"/>
<path d="M177.307 113.064C176.326 114.122 175.346 115.067 174.317 116.054C173.809 116.532 173.294 117.011 172.768 117.471L171.973 118.171L171.775 118.344L171.435 118.619C171.084 118.9 170.695 119.129 170.28 119.301C169.819 119.497 169.323 119.599 168.821 119.6C168.393 119.602 167.968 119.527 167.566 119.379C167.12 119.209 166.713 118.951 166.37 118.619C165.931 118.191 165.61 117.658 165.437 117.07C165.346 116.781 165.288 116.482 165.263 116.179C165.232 115.825 165.232 115.469 165.263 115.115C165.293 114.828 165.329 114.577 165.377 114.344C165.541 113.528 165.773 112.728 166.071 111.952C166.34 111.214 166.649 110.491 166.997 109.787C167.38 109.027 167.745 108.471 168.11 107.837C169.591 105.41 171.282 103.117 173.163 100.984C175.025 98.864 177.076 96.9184 179.292 95.1717L181.493 97.4381C179.95 99.5072 178.431 101.726 177.026 103.908C175.627 106.079 174.35 108.325 173.199 110.636C172.942 111.198 172.601 111.832 172.439 112.286C172.225 112.814 172.04 113.353 171.883 113.901C171.732 114.394 171.618 114.898 171.542 115.408C171.538 115.488 171.538 115.568 171.542 115.647C171.542 115.695 171.542 115.719 171.542 115.593C171.532 115.459 171.506 115.327 171.465 115.199C171.335 114.775 171.098 114.392 170.777 114.086C170.491 113.824 170.155 113.62 169.79 113.488C169.469 113.367 169.129 113.304 168.785 113.303C168.455 113.299 168.128 113.362 167.823 113.488C167.719 113.531 167.619 113.581 167.524 113.638L167.751 113.429L168.475 112.771L169.904 111.431C170.849 110.54 171.799 109.589 172.696 108.704L177.307 113.064Z" fill="#FF8B7B"/>
<path opacity="0.2" d="M194.661 108.453C196.802 110.57 197.501 114.433 197.651 117.782L197.304 118.051C195.26 115.866 193.818 113.187 193.118 110.277C193.04 109.966 192.969 109.679 192.915 109.338L194.661 108.453Z" fill="black"/>
<path d="M173.127 105.248C172.266 109.793 171.728 119.128 174.221 137.606H196.742C196.897 134.155 194.727 117.304 198.058 101.032C195.569 100.554 193.052 100.237 190.523 100.081C187.336 99.8985 184.141 99.8985 180.955 100.081C179.902 100.177 178.862 100.332 177.965 100.494C176.772 100.703 175.671 101.27 174.807 102.119C173.943 102.968 173.357 104.059 173.127 105.248Z" fill="#F4931E"/>
<path opacity="0.4" d="M173.127 105.248C172.266 109.793 171.728 119.128 174.221 137.606H196.742C196.897 134.155 194.727 117.304 198.058 101.032C195.569 100.554 193.052 100.237 190.523 100.081C187.336 99.8985 184.141 99.8985 180.955 100.081C179.902 100.177 178.862 100.332 177.965 100.494C176.772 100.703 175.671 101.27 174.807 102.119C173.943 102.968 173.357 104.059 173.127 105.248Z" fill="black"/>
<path opacity="0.2" d="M176.571 111.987L172.505 111.013C172.379 113.476 172.367 116.526 172.547 120.3C174.419 118.171 176.811 114.846 176.571 111.987Z" fill="black"/>
<path opacity="0.2" d="M180.59 234.876L180.805 239.9H185.015L184.8 234.876H180.59Z" fill="black"/>
<path opacity="0.2" d="M211.961 233.597L207.847 234.488L209.976 239.164L214.09 238.273L211.961 233.597Z" fill="black"/>
<path d="M191.318 86.2077C190.242 90.2382 189.811 92.6541 187.323 94.3285C183.586 96.876 178.922 93.9577 178.802 89.7C178.67 85.8548 180.458 79.9047 184.782 79.0915C185.732 78.9131 186.712 78.9797 187.629 79.2849C188.546 79.59 189.371 80.1238 190.025 80.8357C190.679 81.5477 191.141 82.4144 191.367 83.3543C191.593 84.2941 191.576 85.2761 191.318 86.2077Z" fill="#FF8B7B"/>
<path d="M181.882 86.3572C181.678 85.819 180.751 81.6509 181.625 80.5685C182.498 79.4862 192.454 80.2695 193.925 81.7167C196.371 84.1087 194.673 86.2615 192 89.0303C189.991 91.1113 189.913 93.4555 188.896 93.8143C187.102 94.4123 184.363 93.8501 183.813 91.9545C183.263 90.0588 181.882 86.3572 181.882 86.3572Z" fill="#263238"/>
<path d="M192.717 76.9746C189.201 75.4796 182.605 77.136 179.041 76.2749C178.996 77.6002 179.432 78.8971 180.268 79.926C181.105 80.9549 182.285 81.6462 183.592 81.8722C186.548 82.4356 189.552 82.714 192.562 82.7034C196.473 82.524 195.707 78.2483 192.717 76.9746Z" fill="#263238"/>
<path d="M193.268 81.8423C194.552 81.9687 195.846 81.7216 196.993 81.1306C197.651 82.7213 194.033 83.1579 193.268 81.8423Z" fill="#263238"/>
<path d="M183.795 86.5246C183.715 87.5617 183.294 88.5432 182.599 89.3173C181.678 90.3279 180.722 89.694 180.56 88.4681C180.417 87.3558 180.716 85.4781 181.84 84.9399C182.964 84.4017 183.873 85.2748 183.795 86.5246Z" fill="#FF8B7B"/>
<path d="M182.205 137.624C182.205 137.624 186.989 169.766 189.602 181.81C192.466 194.996 207.859 238.62 207.859 238.62L215.388 236.987C215.388 236.987 204.624 201.43 202.232 182.994C200.378 168.833 196.736 137.612 196.736 137.612L182.205 137.624Z" fill="#F4931E"/>
<path d="M206.053 236.114C206.023 236.114 207.458 238.841 207.458 238.841L215.926 237.005L215.214 234.458L206.053 236.114Z" fill="#263238"/>
<path opacity="0.3" d="M185.224 149.075C190.744 150.158 190.158 170.741 189.494 181.332C187.904 173.845 185.571 159.445 183.981 149.225C184.366 149.035 184.805 148.982 185.224 149.075Z" fill="black"/>
<path d="M174.221 137.624C174.221 137.624 173.623 169.073 174.102 181.876C174.58 195.217 179.239 238.901 179.239 238.901H186.367C186.367 238.901 186.624 195.994 186.965 182.892C187.312 168.612 189.034 137.6 189.034 137.6L174.221 137.624Z" fill="#F4931E"/>
<path d="M177.869 236.09C177.833 236.09 178.27 239.045 178.27 239.045H186.935L187.174 236.407L177.869 236.09Z" fill="#263238"/>
<path d="M181.941 106.647C183.957 112.083 172.11 118.488 172.11 118.488L166.979 111.91C166.979 111.91 170.43 105.081 174.616 102.007C179.789 98.2155 180.405 102.509 181.941 106.647Z" fill="#F4931E"/>
<path opacity="0.4" d="M181.941 106.647C183.957 112.083 172.11 118.488 172.11 118.488L166.979 111.91C166.979 111.91 170.43 105.081 174.616 102.007C179.789 98.2155 180.405 102.509 181.941 106.647Z" fill="black"/>
<path d="M228.358 65.3793C240.278 65.3793 249.94 59.2215 249.94 51.6253C249.94 44.0292 240.278 37.8713 228.358 37.8713C216.439 37.8713 206.776 44.0292 206.776 51.6253C206.776 59.2215 216.439 65.3793 228.358 65.3793Z" fill="#F4931E"/>
<path d="M220.572 58.5502C219.151 58.5456 217.776 58.0401 216.69 57.1225C215.604 56.2049 214.876 54.934 214.634 53.533C214.396 52.0154 214.739 50.4639 215.593 49.1873C216.447 47.9108 217.751 47.0027 219.245 46.644C220.47 46.3616 221.754 46.4704 222.914 46.9553C224.075 47.4401 225.055 48.2765 225.715 49.347L239.571 46.4885C240.103 46.3719 240.66 46.4604 241.13 46.7365C241.6 47.0125 241.949 47.4557 242.106 47.9775C242.179 48.2519 242.195 48.5381 242.153 48.8188C242.111 49.0995 242.012 49.3687 241.863 49.6099C241.713 49.8511 241.516 50.0594 241.284 50.2218C241.051 50.3843 240.788 50.4977 240.51 50.5549L240.151 50.6267C240.098 50.6362 240.047 50.6579 240.004 50.6901C239.96 50.7222 239.925 50.764 239.9 50.8121C239.878 50.8609 239.866 50.9139 239.866 50.9675C239.866 51.0212 239.878 51.0742 239.9 51.123L240.145 51.7569C240.227 51.9624 240.235 52.19 240.167 52.4007C240.1 52.6114 239.961 52.7919 239.774 52.911C239.627 53.0019 239.503 53.125 239.411 53.2711C239.318 53.4172 239.261 53.5825 239.242 53.7542C239.224 53.9513 239.145 54.1379 239.015 54.2872C238.885 54.4364 238.711 54.5408 238.518 54.5854L238.237 54.6452C238.042 54.6812 237.841 54.6543 237.663 54.5683C237.484 54.4823 237.338 54.3417 237.245 54.1668C237.12 53.9583 236.934 53.7936 236.712 53.6958C236.49 53.5981 236.243 53.5721 236.005 53.6214C235.768 53.6708 235.551 53.7931 235.386 53.9713C235.222 54.1494 235.117 54.3746 235.086 54.6153C235.069 54.8112 234.991 54.9967 234.862 55.1451C234.733 55.2934 234.56 55.3969 234.368 55.4406L234.087 55.5004C233.892 55.5354 233.691 55.508 233.513 55.4221C233.335 55.3362 233.188 55.1962 233.094 55.022C233.005 54.8737 232.884 54.7466 232.741 54.6495C232.597 54.5525 232.434 54.4878 232.263 54.4599C232.033 54.4322 231.821 54.3215 231.667 54.1487C231.513 53.9758 231.427 53.7526 231.426 53.521V52.8393C231.424 52.7859 231.41 52.7338 231.385 52.6863C231.361 52.6388 231.326 52.5972 231.284 52.5643C231.242 52.5314 231.194 52.5079 231.142 52.4955C231.09 52.4831 231.036 52.482 230.983 52.4924L226.564 53.4014C226.384 54.6257 225.831 55.7648 224.98 56.6636C224.13 57.5624 223.023 58.1773 221.81 58.4246C221.403 58.5079 220.988 58.55 220.572 58.5502ZM219.376 47.1882C218.02 47.505 216.834 48.324 216.057 49.4802C215.281 50.6363 214.971 52.0439 215.19 53.4193C215.425 54.699 216.111 55.8522 217.122 56.6704C218.134 57.4886 219.405 57.9177 220.706 57.8801C222.006 57.8426 223.25 57.3408 224.213 56.4655C225.176 55.5903 225.793 54.3995 225.954 53.1084V52.8931L230.828 51.9064C230.968 51.8726 231.113 51.8703 231.254 51.8998C231.395 51.9292 231.527 51.9897 231.642 52.0767C231.756 52.1637 231.85 52.2752 231.916 52.403C231.982 52.5307 232.019 52.6716 232.024 52.8154V53.4971C232.025 53.5782 232.055 53.6565 232.107 53.7186C232.159 53.7806 232.231 53.8228 232.311 53.8379C232.572 53.8754 232.822 53.9718 233.041 54.12C233.259 54.2682 233.441 54.4641 233.573 54.6931C233.605 54.7576 233.656 54.8107 233.719 54.845C233.782 54.8793 233.854 54.893 233.926 54.8844L234.201 54.8246C234.27 54.8067 234.333 54.7667 234.378 54.7107C234.423 54.6547 234.449 54.5856 234.452 54.5137C234.49 54.1414 234.645 53.7908 234.895 53.5124C235.145 53.2341 235.477 53.0425 235.843 52.9652C236.209 52.888 236.59 52.9292 236.931 53.0829C237.273 53.2365 237.556 53.4947 237.741 53.82C237.772 53.884 237.821 53.9369 237.884 53.9712C237.946 54.0055 238.017 54.0196 238.088 54.0114L238.375 53.9516C238.443 53.9325 238.504 53.8921 238.548 53.8362C238.592 53.7803 238.617 53.7118 238.62 53.6406C238.65 53.378 238.739 53.1257 238.881 52.9029C239.023 52.6801 239.214 52.4926 239.439 52.3549C239.505 52.3074 239.553 52.2392 239.576 52.1612C239.599 52.0832 239.595 51.9998 239.565 51.9243L239.32 51.2905C239.269 51.1598 239.247 51.0196 239.256 50.8797C239.266 50.7399 239.305 50.6037 239.372 50.4806C239.439 50.3576 239.533 50.2508 239.646 50.1676C239.758 50.0843 239.888 50.0267 240.025 49.9988L240.39 49.921C240.587 49.8789 240.774 49.7975 240.94 49.6815C241.105 49.5655 241.245 49.4173 241.351 49.246C241.458 49.0746 241.529 48.8834 241.56 48.684C241.591 48.4845 241.582 48.2809 241.532 48.0852C241.415 47.7088 241.161 47.3906 240.819 47.1942C240.478 46.9979 240.074 46.9381 239.69 47.0267L225.446 49.9868L225.338 49.8014C224.766 48.7826 223.878 47.9777 222.807 47.5084C221.737 47.0391 220.543 46.9309 219.406 47.2001L219.376 47.1882ZM220.572 56.3256C219.829 56.3339 219.1 56.1261 218.473 55.7276C217.732 55.2408 217.182 54.5118 216.918 53.665C216.654 52.8182 216.691 51.906 217.024 51.0838C217.357 50.2617 217.965 49.5805 218.745 49.1565C219.524 48.7324 220.426 48.5917 221.297 48.7584C222.168 48.925 222.955 49.3887 223.523 50.0703C224.09 50.752 224.404 51.6094 224.41 52.4965C224.416 53.3835 224.115 54.2453 223.557 54.9348C222.998 55.6243 222.219 56.099 221.35 56.2778C221.095 56.3238 220.837 56.3439 220.578 56.3376L220.572 56.3256ZM220.572 49.2632C220.349 49.2645 220.127 49.2865 219.909 49.329C219.492 49.4178 219.097 49.5877 218.746 49.8291C218.395 50.0705 218.095 50.3787 217.863 50.736C217.631 51.0933 217.472 51.4928 217.395 51.9117C217.317 52.3305 217.323 52.7605 217.412 53.1771C217.501 53.5937 217.671 53.9888 217.912 54.3397C218.153 54.6907 218.462 54.9906 218.819 55.2224C219.176 55.4543 219.576 55.6135 219.995 55.6909C220.413 55.7683 220.843 55.7625 221.26 55.6738C221.885 55.5436 222.458 55.2312 222.906 54.7759C223.354 54.3206 223.658 53.7428 223.778 53.1154C223.898 52.488 223.83 51.8391 223.582 51.2504C223.334 50.6617 222.917 50.1596 222.384 49.8074C221.855 49.4553 221.232 49.2699 220.596 49.2752L220.572 49.2632Z" fill="white"/>
<path opacity="0.6" d="M210.795 73.4464C214.712 73.4464 217.887 71.4223 217.887 68.9255C217.887 66.4287 214.712 64.4046 210.795 64.4046C206.878 64.4046 203.703 66.4287 203.703 68.9255C203.703 71.4223 206.878 73.4464 210.795 73.4464Z" fill="#F4931E"/>
<path opacity="0.3" d="M199.511 75.3002C201.119 75.3002 202.423 74.4702 202.423 73.4464C202.423 72.4225 201.119 71.5926 199.511 71.5926C197.902 71.5926 196.599 72.4225 196.599 73.4464C196.599 74.4702 197.902 75.3002 199.511 75.3002Z" fill="#F4931E"/>
</svg>
